<svg width="123" height="123" viewBox="0 0 123 123" fill="none" xmlns="http://www.w3.org/2000/svg">
<path d="M108.421 122.378C108.03 122.769 107.397 122.769 107.007 122.378L61.5996 76.971L16.1926 122.378C15.8021 122.769 15.1689 122.769 14.7784 122.378L0.821228 108.421C0.430704 108.03 0.430703 107.397 0.821228 107.007L46.2282 61.5996L0.821227 16.1926C0.430703 15.8021 0.430703 15.1689 0.821228 14.7784L14.7784 0.821223C15.1689 0.430699 15.8021 0.430699 16.1926 0.821223L61.5996 46.2282L107.007 0.821222C107.397 0.430698 108.03 0.430699 108.421 0.821223L122.378 14.7784C122.769 15.1689 122.769 15.8021 122.378 16.1926L76.971 61.5996L122.378 107.007C122.769 107.397 122.769 108.03 122.378 108.421L108.421 122.378Z" fill="white"/>
</svg>
