<svg width="26" height="22" viewBox="0 0 26 22" fill="none" xmlns="http://www.w3.org/2000/svg">
<path fill-rule="evenodd" clip-rule="evenodd" d="M25.6 10.9115C25.6 11.2696 25.4578 11.6129 25.2046 11.8661C24.9514 12.1193 24.608 12.2615 24.25 12.2615L5.1016 12.2615L12.586 19.3895C12.8315 19.6405 12.9696 19.9772 12.971 20.3283C12.9724 20.6793 12.837 21.0171 12.5934 21.27C12.3499 21.5229 12.0175 21.671 11.6666 21.6828C11.3157 21.6947 10.974 21.5694 10.714 21.3335L0.813998 11.8835C0.683343 11.7576 0.579417 11.6066 0.508433 11.4396C0.437449 11.2726 0.400864 11.093 0.400864 10.9115C0.400864 10.73 0.437449 10.5504 0.508433 10.3834C0.579417 10.2164 0.683343 10.0654 0.813998 9.93951L10.714 0.48951C10.8403 0.360365 10.9913 0.257893 11.158 0.188169C11.3247 0.118444 11.5037 0.0828857 11.6843 0.083601C11.865 0.0843163 12.0437 0.12129 12.2098 0.192329C12.3759 0.263371 12.5261 0.367033 12.6514 0.497175C12.7767 0.627317 12.8747 0.78129 12.9394 0.949972C13.0041 1.11865 13.0343 1.29861 13.0282 1.47918C13.0221 1.65975 12.9798 1.83726 12.9039 2.00118C12.8279 2.16511 12.7198 2.31212 12.586 2.43351L5.1016 9.56151L24.25 9.56151C24.608 9.56151 24.9514 9.70374 25.2046 9.95692C25.4578 10.2101 25.6 10.5535 25.6 10.9115Z" fill="white"/>
</svg>
