<svg width="26" height="22" viewBox="0 0 26 22" fill="none" xmlns="http://www.w3.org/2000/svg">
<path fill-rule="evenodd" clip-rule="evenodd" d="M0.400002 10.9117C0.400002 10.5537 0.542233 10.2103 0.795406 9.95714C1.04858 9.70396 1.39196 9.56173 1.75 9.56173H20.8984L13.414 2.43373C13.1685 2.18278 13.0304 1.84606 13.029 1.49499C13.0276 1.14392 13.163 0.806118 13.4066 0.553233C13.6501 0.300348 13.9825 0.152274 14.3334 0.140419C14.6843 0.128564 15.026 0.25386 15.286 0.489731L25.186 9.93973C25.3167 10.0657 25.4206 10.2166 25.4916 10.3837C25.5626 10.5507 25.5991 10.7303 25.5991 10.9117C25.5991 11.0932 25.5626 11.2728 25.4916 11.4398C25.4206 11.6068 25.3167 11.7578 25.186 11.8837L15.286 21.3337C15.1597 21.4629 15.0087 21.5653 14.842 21.6351C14.6753 21.7048 14.4963 21.7404 14.3157 21.7396C14.135 21.7389 13.9563 21.702 13.7902 21.6309C13.6241 21.5599 13.4739 21.4562 13.3486 21.3261C13.2233 21.1959 13.1253 21.042 13.0606 20.8733C12.9959 20.7046 12.9657 20.5246 12.9718 20.3441C12.9779 20.1635 13.0202 19.986 13.0961 19.8221C13.1721 19.6581 13.2802 19.5111 13.414 19.3897L20.8984 12.2617H1.75C1.39196 12.2617 1.04858 12.1195 0.795406 11.8663C0.542233 11.6132 0.400002 11.2698 0.400002 10.9117Z" fill="white"/>
</svg>
