<svg width="31" height="31" fill="none" xmlns="http://www.w3.org/2000/svg"><g clip-path="url(#prefix__clip0_3200_13011)"><path d="M22.563 8.438A9.947 9.947 0 0015.5 5.5c-5.525 0-9.987 4.475-9.987 10s4.462 10 9.987 10c4.663 0 8.55-3.188 9.663-7.5h-2.6a7.488 7.488 0 01-7.063 5A7.506 7.506 0 018 15.5C8 11.363 11.363 8 15.5 8c2.075 0 3.925.863 5.275 2.225L16.75 14.25h8.75V5.5l-2.937 2.938z" fill="#1F1E1E"/></g><defs><clipPath id="prefix__clip0_3200_13011"><path fill="#fff" transform="translate(.5 .5)" d="M0 0h30v30H0z"/></clipPath></defs></svg>